<svg width="161" height="65" viewBox="0 0 161 65" fill="none" xmlns="http://www.w3.org/2000/svg">
    <path d="M81.3064 13.2928H80.8767V2.44156H78.3535V20.1465H80.9796L84.4855 9.90145H84.9145V20.1465H87.4388V2.44156H84.8391L81.3064 13.2928Z" fill="black"></path>
    <path d="M92.0999 20.1465L93.8177 12.608H95.2531V20.1465H98.0318V12.608H99.4711L101.186 20.1465H104.088L101.868 11.116L103.761 2.44175H100.959L99.4443 9.95491H98.0318V2.44175H95.2531V9.95491H93.8414L92.3274 2.44175H89.5249L91.4171 11.116L89.1973 20.1465H92.0999Z" fill="black"></path>
    <path d="M113.395 17.4891H108.623V12.5588H112.916V9.90164H108.623V5.09604H113.418V2.44175H105.848V20.1465H113.395V17.4891Z" fill="black"></path>
    <g mask="url(#mask0_1364_65811)">
        <path d="M118.665 12.3042H121.188C121.592 12.3042 121.821 12.5324 121.821 12.9372V16.8572C121.821 17.2619 121.592 17.4891 121.188 17.4891H118.665V12.3042ZM118.665 5.09604H120.81C121.217 5.09604 121.441 5.32539 121.441 5.72909V9.14481C121.441 9.54947 121.217 9.77672 120.81 9.77672H118.665V5.09604ZM124.597 16.6022V13.621C124.597 12.0532 124.192 11.3944 122.907 10.9913V10.6613C123.865 10.1814 124.22 9.62439 124.22 8.63725V5.98278C124.22 3.1754 123.134 2.44175 120.181 2.44175H115.889V20.1465H120.56C123.511 20.1465 124.597 19.41 124.597 16.6022Z" fill="black"></path>
        <path d="M131.382 2.43875H130.879C127.925 2.43875 126.84 3.15228 126.84 5.88224V16.7059C126.84 19.4372 127.925 20.1494 130.879 20.1494H131.382C134.336 20.1494 135.423 19.4372 135.423 16.7059V14.0505H132.646V16.9523C132.646 17.3457 132.417 17.5672 132.015 17.5672H130.247C129.842 17.5672 129.616 17.3457 129.616 16.9523V5.63546C129.616 5.24324 129.842 5.0206 130.247 5.0206H132.015C132.417 5.0206 132.646 5.24324 132.646 5.63546V7.97302H135.423V5.88224C135.423 3.15228 134.336 2.43875 131.382 2.43875Z" fill="black"></path>
        <path d="M144.298 11.116L147.303 2.44175H144.474L141.877 10.0292H140.562V2.44175H137.787V20.1465H140.562V12.683H142L144.754 20.1465H147.757L144.298 11.116Z" fill="black"></path>
        <path d="M84.5338 38.0841C84.5338 38.4754 84.3059 38.6988 83.903 38.6988H81.6297C81.2276 38.6988 81.0013 38.4754 81.0013 38.0841V26.7753C81.0013 26.3813 81.2276 26.1597 81.6297 26.1597H83.903C84.3059 26.1597 84.5338 26.3813 84.5338 26.7753V38.0841ZM83.269 23.5791H82.262C79.3104 23.5791 78.2227 24.2923 78.2227 27.0228V37.8364C78.2227 40.5688 79.3104 41.2783 82.262 41.2783H83.269C86.2238 41.2783 87.3108 40.5688 87.3108 37.8364V27.0228C87.3108 24.2923 86.2238 23.5791 83.269 23.5791Z" fill="black"></path>
        <path d="M100.028 41.2803V23.5771H90.9395V41.2803H93.7174V26.2342H97.2512V41.2803H100.028Z" fill="black"></path>
        <path d="M103.74 41.2803H111.287V38.6248H106.516V33.6935H110.809V31.0379H106.516V26.2342H111.312V23.5771H103.74V41.2803Z" fill="black"></path>
        <path d="M117.169 26.2342H119.565C119.97 26.2342 120.201 26.4617 120.201 26.8661V31.621C120.201 32.0249 119.97 32.2523 119.565 32.2523H117.169V26.2342ZM117.169 34.9072H118.937C121.89 34.9072 122.976 34.175 122.976 31.3661V27.1189C122.976 24.3124 121.89 23.5771 118.937 23.5771H114.395V41.2803H117.169V34.9072Z" fill="black"></path>
        <path d="M127.869 35.592L129.129 26.8129H129.584L130.848 35.592H127.869ZM127.186 23.5771L124.182 41.2803H127.034L127.49 38.0951H131.225L131.68 41.2803H134.531L131.529 23.5771H127.186Z" fill="black"></path>
        <path d="M83.9037 59.13C83.9037 59.5326 83.6767 59.7604 83.27 59.7604H81.1258V53.7408H83.27C83.6767 53.7408 83.9037 53.9707 83.9037 54.3727V59.13ZM82.642 51.0858H81.1258V47.3709H86.0243V44.7126H78.3516V62.417H82.642C85.5946 62.417 86.6814 61.6814 86.6814 58.8769V54.6277C86.6814 51.8206 85.5946 51.0858 82.642 51.0858Z" fill="black"></path>
        <path d="M91.9258 56.7269L93.1879 47.9498H93.6431L94.9056 56.7269H91.9258ZM91.2469 44.7126L88.2422 62.417H91.0966L91.5487 59.2301H95.2833L95.7398 62.417H98.5913L95.5893 44.7126H91.2469Z" fill="black"></path>
        <path d="M101.293 58.7742C101.239 59.5351 101.14 59.6866 100.534 59.6866H99.8027V62.417H100.332C102.88 62.417 103.765 61.759 103.94 58.6734L104.623 47.2416H106.745V62.417H109.522V44.7126H102.1L101.293 58.7742Z" fill="black"></path>
        <path d="M112.535 62.417H120.084V59.7604H115.313V54.8285H119.603V52.1727H115.313V47.3709H120.106V44.7126H112.535V62.417Z" fill="black"></path>
        <path d="M122.225 47.3709H125.127V62.417H127.906V47.3709H130.807V44.7126H122.225V47.3709Z" fill="black"></path>
        <path d="M14.2285 60.3154H14.2441C14.3106 60.3148 14.2575 60.315 14.2285 60.3154Z" fill="black"></path>
        <path d="M34.6785 47.2119H74.9762V43.7713H33.7168L34.6785 47.2119Z" fill="black"></path>
        <path d="M69.1668 24.8223H71.2348V34.86H69.1668V24.8223ZM69.1668 19.134H71.2348V23.9438H69.1668V19.134ZM72.562 43.2952V39.1107H74.9806V38.2242H72.562V24.8223H74.9806V23.9438H72.562V19.134H74.9806V16.4094H70.0733L67.1166 13.3556H65.127V43.2979L69.1668 43.2963V35.9972H71.235V43.2956L72.562 43.2952Z" fill="black"></path>
        <path d="M57.0135 24.8216H61.8495V38.2235H57.0135V24.8216ZM57.0135 19.1333H61.8495V23.9431H57.0135V19.1333ZM55.6842 23.9431H53.8512V19.1333H55.6842V23.9431ZM55.6842 34.8592H53.8512V24.8214H55.6842V34.8592ZM63.1738 43.2978V35.9965H64.6677V34.8592H63.1738V24.8216H64.6677V23.9431H63.1738V19.1333H64.6557L64.652 15.9475L54.9533 15.9393L53.5102 14.6243L51.5992 12.8822H48.959V43.3027L53.8512 43.301V35.9965H55.6842V43.3004L57.0135 43.3001V39.1101H61.8495V43.2983L63.1738 43.2978Z" fill="black"></path>
        <path d="M46.9571 23.9434H43.4652V19.1336H46.9571V23.9434ZM46.9571 38.2238H43.4652V24.8219H46.9571V38.2238ZM42.5055 23.9434H40.9814V19.1336H42.5055V23.9434ZM42.5055 34.8594H40.9814V24.8217H42.5055V34.8594ZM48.4845 19.1336V15.9396H41.6867L38.3375 12.8825H35.8379L35.8394 43.3076L40.9816 43.3059V35.9968H42.5055L42.5065 43.3053L43.4652 43.3049V39.1104H46.9571L46.9575 43.3038L47.9183 43.3034V35.9968H48.4845V34.8594H47.9183V24.8219H48.4845V23.9434H47.9183V19.1336H48.4845Z" fill="black"></path>
        <path d="M74.9832 4.80956H67.2364V4.80917H55.832V12.2549L63.048 9.85428H74.9832V4.80956Z" fill="black"></path>
        <path d="M74.9804 2.43812H67.2363V4.34668H74.9804V2.43812Z" fill="black"></path>
        <path d="M55.8333 12.7922L54.8714 13.1829L53.8398 14.2775L55.1468 15.4777H64.6594L64.6629 12.8824H65.1769H66.9049H67.3124L70.2797 15.9395H74.9845V10.3124H63.1389L55.8333 12.7922Z" fill="black"></path>
        <path d="M69.167 48.9693V47.6716H65.127V56.5469H69.167V48.9755V48.9693Z" fill="black"></path>
        <path d="M53.8494 47.6716H49.4238L49.4257 56.5469H53.8494V47.6716Z" fill="black"></path>
        <path d="M35.8366 47.6716V47.6799V49.4825V49.4886L34.5098 56.5469H40.9787L40.9778 47.6716H35.8366Z" fill="black"></path>
        <path d="M31.6765 30.7086H33.342V38.4187H31.6765V30.7086ZM31.6765 27.0806V27.0742H33.3422V29.8295H31.6765V27.0806ZM31.6765 47.2769H33.3422V56.5469L34.0391 56.5429L34.2802 55.2905V47.4944L33.3422 44.1448V46.1451H31.6765V39.5568H33.3422V43.3088L34.2802 43.3084V39.5568H35.3819V38.4185H34.2802V30.7086H35.3819V29.8295H34.2802V27.0742H35.3819V24.4974V24.4912L32.1202 24.4903L30.5373 22.9149H30.2061H28.8994H28.5684V32.803V32.8049V32.8091V56.5469H31.6765V47.2769Z" fill="black"></path>
        <path d="M25.9648 35.1116H26.6743V38.9924H25.9648V35.1178V35.1116ZM26.6743 47.0872H25.9648V39.7806H26.6743V47.0872ZM25.9648 47.8567H26.6743V56.5469H27.4972V47.8567H28.12V47.0872H27.4972V39.7806H28.12V38.9924H27.4972V35.1116H28.1149V32.8091V32.8049H26.7175L25.1322 30.3943H24.8143H23.3204H23.1406V40.6419V40.6482V56.5469H25.9648V47.8567Z" fill="black"></path>
        <path d="M20.5188 42.8666V42.8601H21.2001V46.8178H20.5188V47.5894H21.2001V56.5469H22.0209L22.0198 47.5894H22.673V46.8178H22.0198V42.8601H22.673V40.6501L21.2011 40.6561L19.4054 38.6852H18.9168H17.7068H17.4316V56.5469H20.5188V42.8666Z" fill="black"></path>
        <path d="M72.1953 56.5469H74.9814V48.9753H72.1953V56.5469Z" fill="black"></path>
        <path d="M14.384 58.668L13.9277 60.3154H74.983V58.6701L15.2171 58.668H14.384Z" fill="black"></path>
        <path d="M17.4419 56.8556L16.3982 56.8554L16.1387 58.3499L74.9886 58.3564V56.8639H17.4419V56.8556Z" fill="black"></path>
        <path d="M12.0254 62.3516H74.9835V60.6358H12.3352L12.0254 62.3516Z" fill="black"></path>
        <path d="M56.6191 56.5469H62.2294V48.9693H56.6191V56.5469Z" fill="black"></path>
    </g>
</svg>